# xmcd
#
# Track frame offsets: 
#        150
#        16322
#        35536
#        55578
#        69276
#        81598
#        92622
#        98678
#        109563
#        125657
#        137414
#        144949
#        156713
#        173258
#        199348
#
# Disc length: 2847 seconds
#
# Revision: 0
# Processed by: cddbd v1.5.2PL0 Copyright (c) Steve Scherf et al.
# Submitted via: ExactAudioCopy v0.95b4
#
DISCID=c00b1d0f
DTITLE=Various Artist - COUNTRY Legends Disc 2
DYEAR=2006
DGENRE=Country
TTITLE0=GEORGIA ON MY MIND - WILLIE NELSON
TTITLE1=( THERE MUST BE ) MORE TO LOVE THAN THIS - JERRY LEE LEWIS
TTITLE2=I FALL TO PIECES - LORETTA LYNN
TTITLE3=JACKSON - JOHNNY CASH
TTITLE4=ALL I HAVE TO OFFER YOU ( IS ME ) - CHARLEY PRIDE
TTITLE5=JOUR MY BEST FRIEND - DON WILLIAMS
TTITLE6=THAT SONG IS DRIVING ME CRAZY - TOM T HALL
TTITLE7=D-I-V-O-R-C-E - TAMMY WYNETTE
TTITLE8=THE FIGHTIN SIDE OF ME - MERLE HAGGARD
TTITLE9=DEVIL WOMAN - MARTY ROBBINS
TTITLE10=STAR DUST -  WILLIE NELSON
TTITLE11=TULSA TIME - DON WILLIAMS
TTITLE12=IN A MANSION STANDS MY LOVE - JIM REEVES
TTITLE13=JAMBALAYA - BRENDA LEE
TTITLE14=THE TENNESSEE WALTZ - BOXCAR WILLIE
EXTD=
EXTT0=
EXTT1=
EXTT2=
EXTT3=
EXTT4=
EXTT5=
EXTT6=
EXTT7=
EXTT8=
EXTT9=
EXTT10=
EXTT11=
EXTT12=
EXTT13=
EXTT14=
PLAYORDER=
